<?xml version="1.0" encoding="UTF-8" standalone="no"?>
<!DOCTYPE svg PUBLIC "-//W3C//DTD SVG 1.1//EN"
 "http://www.w3.org/Graphics/SVG/1.1/DTD/svg11.dtd">
<!-- Generated by graphviz version 12.2.1 (20241206.2353)
 -->
<!-- Pages: 1 -->
<svg width="3365pt" height="210pt"
 viewBox="0.00 0.00 3365.00 210.00" xmlns="http://www.w3.org/2000/svg" xmlns:xlink="http://www.w3.org/1999/xlink">
<g id="graph0" class="graph" transform="scale(1 1) rotate(0) translate(4 206)">
<polygon fill="white" stroke="none" points="-4,4 -4,-206 3361,-206 3361,4 -4,4"/>
<!-- 4366609936 -->
<g id="node1" class="node">
<title>4366609936</title>
<polygon fill="none" stroke="black" points="1766.62,-136.5 1766.62,-172.5 1966.88,-172.5 1966.88,-136.5 1766.62,-136.5"/>
<text text-anchor="middle" x="1780.25" y="-149.7" font-family="Times,serif" font-size="14.00">&#45;1</text>
<polyline fill="none" stroke="black" points="1793.88,-137 1793.88,-172.5"/>
<text text-anchor="middle" x="1837.88" y="-149.7" font-family="Times,serif" font-size="14.00">data: &#45;1.0000</text>
<polyline fill="none" stroke="black" points="1881.88,-137 1881.88,-172.5"/>
<text text-anchor="middle" x="1924.38" y="-149.7" font-family="Times,serif" font-size="14.00">grad: 0.1464</text>
</g>
<!-- 4366610320+ -->
<g id="node22" class="node">
<title>4366610320+</title>
<ellipse fill="none" stroke="black" cx="2052" cy="-126.5" rx="27" ry="18"/>
<text text-anchor="middle" x="2052" y="-121.45" font-family="Times,serif" font-size="14.00">+</text>
</g>
<!-- 4366609936&#45;&gt;4366610320+ -->
<g id="edge12" class="edge">
<title>4366609936&#45;&gt;4366610320+</title>
<path fill="none" stroke="black" d="M1967.15,-139.31C1983.81,-136.77 2000.12,-134.27 2013.87,-132.17"/>
<polygon fill="black" stroke="black" points="2014.38,-135.64 2023.73,-130.67 2013.32,-128.72 2014.38,-135.64"/>
</g>
<!-- 4319354384 -->
<g id="node2" class="node">
<title>4319354384</title>
<polygon fill="none" stroke="black" points="676.5,-82.5 676.5,-118.5 941.25,-118.5 941.25,-82.5 676.5,-82.5"/>
<text text-anchor="middle" x="722.38" y="-95.7" font-family="Times,serif" font-size="14.00">x1w1 + x2w2</text>
<polyline fill="none" stroke="black" points="768.25,-83 768.25,-118.5"/>
<text text-anchor="middle" x="812.25" y="-95.7" font-family="Times,serif" font-size="14.00">data: &#45;6.0000</text>
<polyline fill="none" stroke="black" points="856.25,-83 856.25,-118.5"/>
<text text-anchor="middle" x="898.75" y="-95.7" font-family="Times,serif" font-size="14.00">grad: 0.5000</text>
</g>
<!-- 4348730192+ -->
<g id="node17" class="node">
<title>4348730192+</title>
<ellipse fill="none" stroke="black" cx="1004.25" cy="-72.5" rx="27" ry="18"/>
<text text-anchor="middle" x="1004.25" y="-67.45" font-family="Times,serif" font-size="14.00">+</text>
</g>
<!-- 4319354384&#45;&gt;4348730192+ -->
<g id="edge25" class="edge">
<title>4319354384&#45;&gt;4348730192+</title>
<path fill="none" stroke="black" d="M937.51,-82.02C947.78,-80.53 957.53,-79.12 966.23,-77.86"/>
<polygon fill="black" stroke="black" points="966.49,-81.36 975.88,-76.46 965.48,-74.43 966.49,-81.36"/>
</g>
<!-- 4319354384+ -->
<g id="node3" class="node">
<title>4319354384+</title>
<ellipse fill="none" stroke="black" cx="613.5" cy="-100.5" rx="27" ry="18"/>
<text text-anchor="middle" x="613.5" y="-95.45" font-family="Times,serif" font-size="14.00">+</text>
</g>
<!-- 4319354384+&#45;&gt;4319354384 -->
<g id="edge1" class="edge">
<title>4319354384+&#45;&gt;4319354384</title>
<path fill="none" stroke="black" d="M640.98,-100.5C647.96,-100.5 656.01,-100.5 664.71,-100.5"/>
<polygon fill="black" stroke="black" points="664.54,-104 674.54,-100.5 664.54,-97 664.54,-104"/>
</g>
<!-- 4368656432 -->
<g id="node4" class="node">
<title>4368656432</title>
<polygon fill="none" stroke="black" points="3164.25,-80.5 3164.25,-116.5 3357,-116.5 3357,-80.5 3164.25,-80.5"/>
<text text-anchor="middle" x="3176.38" y="-93.7" font-family="Times,serif" font-size="14.00">L</text>
<polyline fill="none" stroke="black" points="3188.5,-81 3188.5,-116.5"/>
<text text-anchor="middle" x="3230.25" y="-93.7" font-family="Times,serif" font-size="14.00">data: 0.7071</text>
<polyline fill="none" stroke="black" points="3272,-81 3272,-116.5"/>
<text text-anchor="middle" x="3314.5" y="-93.7" font-family="Times,serif" font-size="14.00">grad: 1.0000</text>
</g>
<!-- 4368656432* -->
<g id="node5" class="node">
<title>4368656432*</title>
<ellipse fill="none" stroke="black" cx="3101.25" cy="-98.5" rx="27" ry="18"/>
<text text-anchor="middle" x="3101.25" y="-93.45" font-family="Times,serif" font-size="14.00">*</text>
</g>
<!-- 4368656432*&#45;&gt;4368656432 -->
<g id="edge2" class="edge">
<title>4368656432*&#45;&gt;4368656432</title>
<path fill="none" stroke="black" d="M3128.59,-98.5C3135.73,-98.5 3143.92,-98.5 3152.64,-98.5"/>
<polygon fill="black" stroke="black" points="3152.42,-102 3162.42,-98.5 3152.42,-95 3152.42,-102"/>
</g>
<!-- 4366940192 -->
<g id="node6" class="node">
<title>4366940192</title>
<polygon fill="none" stroke="black" points="713.25,-27.5 713.25,-63.5 904.5,-63.5 904.5,-27.5 713.25,-27.5"/>
<text text-anchor="middle" x="724.62" y="-40.7" font-family="Times,serif" font-size="14.00">b</text>
<polyline fill="none" stroke="black" points="736,-28 736,-63.5"/>
<text text-anchor="middle" x="777.75" y="-40.7" font-family="Times,serif" font-size="14.00">data: 6.8814</text>
<polyline fill="none" stroke="black" points="819.5,-28 819.5,-63.5"/>
<text text-anchor="middle" x="862" y="-40.7" font-family="Times,serif" font-size="14.00">grad: 0.5000</text>
</g>
<!-- 4366940192&#45;&gt;4348730192+ -->
<g id="edge24" class="edge">
<title>4366940192&#45;&gt;4348730192+</title>
<path fill="none" stroke="black" d="M904.86,-58.76C926.7,-61.81 948.65,-64.88 966.26,-67.33"/>
<polygon fill="black" stroke="black" points="965.54,-70.77 975.93,-68.69 966.51,-63.84 965.54,-70.77"/>
</g>
<!-- 4354865040 -->
<g id="node7" class="node">
<title>4354865040</title>
<polygon fill="none" stroke="black" points="333.75,-110.5 333.75,-146.5 548.25,-146.5 548.25,-110.5 333.75,-110.5"/>
<text text-anchor="middle" x="356.75" y="-123.7" font-family="Times,serif" font-size="14.00">x2w2</text>
<polyline fill="none" stroke="black" points="379.75,-111 379.75,-146.5"/>
<text text-anchor="middle" x="421.5" y="-123.7" font-family="Times,serif" font-size="14.00">data: 0.0000</text>
<polyline fill="none" stroke="black" points="463.25,-111 463.25,-146.5"/>
<text text-anchor="middle" x="505.75" y="-123.7" font-family="Times,serif" font-size="14.00">grad: 0.5000</text>
</g>
<!-- 4354865040&#45;&gt;4319354384+ -->
<g id="edge18" class="edge">
<title>4354865040&#45;&gt;4319354384+</title>
<path fill="none" stroke="black" d="M548.53,-111.01C558.14,-109.43 567.36,-107.91 575.66,-106.55"/>
<polygon fill="black" stroke="black" points="575.95,-110.05 585.25,-104.98 574.81,-103.14 575.95,-110.05"/>
</g>
<!-- 4354865040* -->
<g id="node8" class="node">
<title>4354865040*</title>
<ellipse fill="none" stroke="black" cx="268.5" cy="-128.5" rx="27" ry="18"/>
<text text-anchor="middle" x="268.5" y="-123.45" font-family="Times,serif" font-size="14.00">*</text>
</g>
<!-- 4354865040*&#45;&gt;4354865040 -->
<g id="edge3" class="edge">
<title>4354865040*&#45;&gt;4354865040</title>
<path fill="none" stroke="black" d="M295.77,-128.5C303.42,-128.5 312.32,-128.5 321.87,-128.5"/>
<polygon fill="black" stroke="black" points="321.82,-132 331.82,-128.5 321.82,-125 321.82,-132"/>
</g>
<!-- 4319844944 -->
<g id="node9" class="node">
<title>4319844944</title>
<polygon fill="none" stroke="black" points="1076.25,-109.5 1076.25,-145.5 1267.5,-145.5 1267.5,-109.5 1076.25,-109.5"/>
<text text-anchor="middle" x="1087.62" y="-122.7" font-family="Times,serif" font-size="14.00">2</text>
<polyline fill="none" stroke="black" points="1099,-110 1099,-145.5"/>
<text text-anchor="middle" x="1140.75" y="-122.7" font-family="Times,serif" font-size="14.00">data: 2.0000</text>
<polyline fill="none" stroke="black" points="1182.5,-110 1182.5,-145.5"/>
<text text-anchor="middle" x="1225" y="-122.7" font-family="Times,serif" font-size="14.00">grad: 0.2203</text>
</g>
<!-- 4369401808* -->
<g id="node27" class="node">
<title>4369401808*</title>
<ellipse fill="none" stroke="black" cx="1339.5" cy="-99.5" rx="27" ry="18"/>
<text text-anchor="middle" x="1339.5" y="-94.45" font-family="Times,serif" font-size="14.00">*</text>
</g>
<!-- 4319844944&#45;&gt;4369401808* -->
<g id="edge14" class="edge">
<title>4319844944&#45;&gt;4369401808*</title>
<path fill="none" stroke="black" d="M1267.78,-111.46C1279.73,-109.44 1291.33,-107.47 1301.57,-105.74"/>
<polygon fill="black" stroke="black" points="1302.13,-109.2 1311.41,-104.08 1300.96,-102.3 1302.13,-109.2"/>
</g>
<!-- 4349893744 -->
<g id="node10" class="node">
<title>4349893744</title>
<polygon fill="none" stroke="black" points="331.5,-55.5 331.5,-91.5 550.5,-91.5 550.5,-55.5 331.5,-55.5"/>
<text text-anchor="middle" x="354.5" y="-68.7" font-family="Times,serif" font-size="14.00">x1w1</text>
<polyline fill="none" stroke="black" points="377.5,-56 377.5,-91.5"/>
<text text-anchor="middle" x="421.5" y="-68.7" font-family="Times,serif" font-size="14.00">data: &#45;6.0000</text>
<polyline fill="none" stroke="black" points="465.5,-56 465.5,-91.5"/>
<text text-anchor="middle" x="508" y="-68.7" font-family="Times,serif" font-size="14.00">grad: 0.5000</text>
</g>
<!-- 4349893744&#45;&gt;4319354384+ -->
<g id="edge28" class="edge">
<title>4349893744&#45;&gt;4319354384+</title>
<path fill="none" stroke="black" d="M550.95,-90.75C559.68,-92.14 568.06,-93.46 575.67,-94.67"/>
<polygon fill="black" stroke="black" points="575.01,-98.11 585.43,-96.21 576.1,-91.19 575.01,-98.11"/>
</g>
<!-- 4349893744* -->
<g id="node11" class="node">
<title>4349893744*</title>
<ellipse fill="none" stroke="black" cx="268.5" cy="-73.5" rx="27" ry="18"/>
<text text-anchor="middle" x="268.5" y="-68.45" font-family="Times,serif" font-size="14.00">*</text>
</g>
<!-- 4349893744*&#45;&gt;4349893744 -->
<g id="edge4" class="edge">
<title>4349893744*&#45;&gt;4349893744</title>
<path fill="none" stroke="black" d="M295.77,-73.5C302.86,-73.5 311.02,-73.5 319.78,-73.5"/>
<polygon fill="black" stroke="black" points="319.64,-77 329.64,-73.5 319.64,-70 319.64,-77"/>
</g>
<!-- 4369402048 -->
<g id="node12" class="node">
<title>4369402048</title>
<polygon fill="none" stroke="black" points="1744.5,-81.5 1744.5,-117.5 1989,-117.5 1989,-81.5 1744.5,-81.5"/>
<text text-anchor="middle" x="1782.5" y="-94.7" font-family="Times,serif" font-size="14.00">exp(logit2)</text>
<polyline fill="none" stroke="black" points="1820.5,-82 1820.5,-117.5"/>
<text text-anchor="middle" x="1862.25" y="-94.7" font-family="Times,serif" font-size="14.00">data: 5.8284</text>
<polyline fill="none" stroke="black" points="1904,-82 1904,-117.5"/>
<text text-anchor="middle" x="1946.5" y="-94.7" font-family="Times,serif" font-size="14.00">grad: 0.0429</text>
</g>
<!-- 4369357680+ -->
<g id="node20" class="node">
<title>4369357680+</title>
<ellipse fill="none" stroke="black" cx="2052" cy="-71.5" rx="27" ry="18"/>
<text text-anchor="middle" x="2052" y="-66.45" font-family="Times,serif" font-size="14.00">+</text>
</g>
<!-- 4369402048&#45;&gt;4369357680+ -->
<g id="edge26" class="edge">
<title>4369402048&#45;&gt;4369357680+</title>
<path fill="none" stroke="black" d="M1988.7,-81.02C1997.75,-79.64 2006.37,-78.32 2014.16,-77.13"/>
<polygon fill="black" stroke="black" points="2014.43,-80.63 2023.79,-75.66 2013.37,-73.71 2014.43,-80.63"/>
</g>
<!-- 4369402048&#45;&gt;4366610320+ -->
<g id="edge27" class="edge">
<title>4369402048&#45;&gt;4366610320+</title>
<path fill="none" stroke="black" d="M1989.47,-117.43C1998.23,-118.73 2006.58,-119.96 2014.15,-121.07"/>
<polygon fill="black" stroke="black" points="2013.43,-124.5 2023.83,-122.5 2014.45,-117.58 2013.43,-124.5"/>
</g>
<!-- 4369402048e -->
<g id="node13" class="node">
<title>4369402048e</title>
<ellipse fill="none" stroke="black" cx="1681.5" cy="-99.5" rx="27" ry="18"/>
<text text-anchor="middle" x="1681.5" y="-94.45" font-family="Times,serif" font-size="14.00">e</text>
</g>
<!-- 4369402048e&#45;&gt;4369402048 -->
<g id="edge5" class="edge">
<title>4369402048e&#45;&gt;4369402048</title>
<path fill="none" stroke="black" d="M1708.76,-99.5C1715.85,-99.5 1724.04,-99.5 1732.88,-99.5"/>
<polygon fill="black" stroke="black" points="1732.87,-103 1742.87,-99.5 1732.87,-96 1732.87,-103"/>
</g>
<!-- 4368619216 -->
<g id="node14" class="node">
<title>4368619216</title>
<polygon fill="none" stroke="black" points="0,-55.5 0,-91.5 205.5,-91.5 205.5,-55.5 0,-55.5"/>
<text text-anchor="middle" x="16.25" y="-68.7" font-family="Times,serif" font-size="14.00">w1</text>
<polyline fill="none" stroke="black" points="32.5,-56 32.5,-91.5"/>
<text text-anchor="middle" x="76.5" y="-68.7" font-family="Times,serif" font-size="14.00">data: &#45;3.0000</text>
<polyline fill="none" stroke="black" points="120.5,-56 120.5,-91.5"/>
<text text-anchor="middle" x="163" y="-68.7" font-family="Times,serif" font-size="14.00">grad: 1.0000</text>
</g>
<!-- 4368619216&#45;&gt;4349893744* -->
<g id="edge13" class="edge">
<title>4368619216&#45;&gt;4349893744*</title>
<path fill="none" stroke="black" d="M205.59,-73.5C214.03,-73.5 222.16,-73.5 229.61,-73.5"/>
<polygon fill="black" stroke="black" points="229.53,-77 239.53,-73.5 229.53,-70 229.53,-77"/>
</g>
<!-- 4366939888 -->
<g id="node15" class="node">
<title>4366939888</title>
<polygon fill="none" stroke="black" points="2.25,-165.5 2.25,-201.5 203.25,-201.5 203.25,-165.5 2.25,-165.5"/>
<text text-anchor="middle" x="18.5" y="-178.7" font-family="Times,serif" font-size="14.00">w2</text>
<polyline fill="none" stroke="black" points="34.75,-166 34.75,-201.5"/>
<text text-anchor="middle" x="76.5" y="-178.7" font-family="Times,serif" font-size="14.00">data: 1.0000</text>
<polyline fill="none" stroke="black" points="118.25,-166 118.25,-201.5"/>
<text text-anchor="middle" x="160.75" y="-178.7" font-family="Times,serif" font-size="14.00">grad: 0.0000</text>
</g>
<!-- 4366939888&#45;&gt;4354865040* -->
<g id="edge11" class="edge">
<title>4366939888&#45;&gt;4354865040*</title>
<path fill="none" stroke="black" d="M178.92,-165.06C187.95,-162.4 196.98,-159.53 205.5,-156.5 215.61,-152.9 226.34,-148.34 236,-143.94"/>
<polygon fill="black" stroke="black" points="237.39,-147.15 244.97,-139.75 234.42,-140.81 237.39,-147.15"/>
</g>
<!-- 4348730192 -->
<g id="node16" class="node">
<title>4348730192</title>
<polygon fill="none" stroke="black" points="1067.25,-54.5 1067.25,-90.5 1276.5,-90.5 1276.5,-54.5 1067.25,-54.5"/>
<text text-anchor="middle" x="1087.62" y="-67.7" font-family="Times,serif" font-size="14.00">logit</text>
<polyline fill="none" stroke="black" points="1108,-55 1108,-90.5"/>
<text text-anchor="middle" x="1149.75" y="-67.7" font-family="Times,serif" font-size="14.00">data: 0.8814</text>
<polyline fill="none" stroke="black" points="1191.5,-55 1191.5,-90.5"/>
<text text-anchor="middle" x="1234" y="-67.7" font-family="Times,serif" font-size="14.00">grad: 0.5000</text>
</g>
<!-- 4348730192&#45;&gt;4369401808* -->
<g id="edge17" class="edge">
<title>4348730192&#45;&gt;4369401808*</title>
<path fill="none" stroke="black" d="M1276.83,-89.45C1285.53,-90.86 1293.9,-92.23 1301.51,-93.47"/>
<polygon fill="black" stroke="black" points="1300.86,-96.91 1311.3,-95.07 1301.99,-90 1300.86,-96.91"/>
</g>
<!-- 4348730192+&#45;&gt;4348730192 -->
<g id="edge6" class="edge">
<title>4348730192+&#45;&gt;4348730192</title>
<path fill="none" stroke="black" d="M1031.49,-72.5C1038.61,-72.5 1046.8,-72.5 1055.56,-72.5"/>
<polygon fill="black" stroke="black" points="1055.42,-76 1065.42,-72.5 1055.42,-69 1055.42,-76"/>
</g>
<!-- 4368619856 -->
<g id="node18" class="node">
<title>4368619856</title>
<polygon fill="none" stroke="black" points="3.75,-110.5 3.75,-146.5 201.75,-146.5 201.75,-110.5 3.75,-110.5"/>
<text text-anchor="middle" x="18.5" y="-123.7" font-family="Times,serif" font-size="14.00">x2</text>
<polyline fill="none" stroke="black" points="33.25,-111 33.25,-146.5"/>
<text text-anchor="middle" x="75" y="-123.7" font-family="Times,serif" font-size="14.00">data: 0.0000</text>
<polyline fill="none" stroke="black" points="116.75,-111 116.75,-146.5"/>
<text text-anchor="middle" x="159.25" y="-123.7" font-family="Times,serif" font-size="14.00">grad: 0.5000</text>
</g>
<!-- 4368619856&#45;&gt;4354865040* -->
<g id="edge23" class="edge">
<title>4368619856&#45;&gt;4354865040*</title>
<path fill="none" stroke="black" d="M201.84,-128.5C211.65,-128.5 221.15,-128.5 229.72,-128.5"/>
<polygon fill="black" stroke="black" points="229.65,-132 239.65,-128.5 229.65,-125 229.65,-132"/>
</g>
<!-- 4369357680 -->
<g id="node19" class="node">
<title>4369357680</title>
<polygon fill="none" stroke="black" points="2115,-53.5 2115,-89.5 2386.5,-89.5 2386.5,-53.5 2115,-53.5"/>
<text text-anchor="middle" x="2164.25" y="-66.7" font-family="Times,serif" font-size="14.00">exp(logit2) + 1</text>
<polyline fill="none" stroke="black" points="2213.5,-54 2213.5,-89.5"/>
<text text-anchor="middle" x="2255.25" y="-66.7" font-family="Times,serif" font-size="14.00">data: 6.8284</text>
<polyline fill="none" stroke="black" points="2297,-54 2297,-89.5"/>
<text text-anchor="middle" x="2341.75" y="-66.7" font-family="Times,serif" font-size="14.00">grad: &#45;0.1036</text>
</g>
<!-- 4369516448**&#45;1 -->
<g id="node24" class="node">
<title>4369516448**&#45;1</title>
<ellipse fill="none" stroke="black" cx="2558.25" cy="-71.5" rx="27.81" ry="18"/>
<text text-anchor="middle" x="2558.25" y="-66.45" font-family="Times,serif" font-size="14.00">**&#45;1</text>
</g>
<!-- 4369357680&#45;&gt;4369516448**&#45;1 -->
<g id="edge20" class="edge">
<title>4369357680&#45;&gt;4369516448**&#45;1</title>
<path fill="none" stroke="black" d="M2386.64,-71.5C2434.82,-71.5 2485.41,-71.5 2518.87,-71.5"/>
<polygon fill="black" stroke="black" points="2518.44,-75 2528.44,-71.5 2518.44,-68 2518.44,-75"/>
</g>
<!-- 4369357680+&#45;&gt;4369357680 -->
<g id="edge7" class="edge">
<title>4369357680+&#45;&gt;4369357680</title>
<path fill="none" stroke="black" d="M2079.13,-71.5C2086.26,-71.5 2094.53,-71.5 2103.49,-71.5"/>
<polygon fill="black" stroke="black" points="2103.23,-75 2113.23,-71.5 2103.23,-68 2103.23,-75"/>
</g>
<!-- 4366610320 -->
<g id="node21" class="node">
<title>4366610320</title>
<polygon fill="none" stroke="black" points="2422.5,-108.5 2422.5,-144.5 2694,-144.5 2694,-108.5 2422.5,-108.5"/>
<text text-anchor="middle" x="2474" y="-121.7" font-family="Times,serif" font-size="14.00">exp(logit2) + &#45;1</text>
<polyline fill="none" stroke="black" points="2525.5,-109 2525.5,-144.5"/>
<text text-anchor="middle" x="2567.25" y="-121.7" font-family="Times,serif" font-size="14.00">data: 4.8284</text>
<polyline fill="none" stroke="black" points="2609,-109 2609,-144.5"/>
<text text-anchor="middle" x="2651.5" y="-121.7" font-family="Times,serif" font-size="14.00">grad: 0.1464</text>
</g>
<!-- 4366610320&#45;&gt;4368656432* -->
<g id="edge19" class="edge">
<title>4366610320&#45;&gt;4368656432*</title>
<path fill="none" stroke="black" d="M2694.26,-120.25C2790.24,-115.69 2922.18,-109.15 3038.25,-102.5 3046.14,-102.05 3054.58,-101.53 3062.63,-101.01"/>
<polygon fill="black" stroke="black" points="3062.75,-104.51 3072.5,-100.37 3062.29,-97.53 3062.75,-104.51"/>
</g>
<!-- 4366610320+&#45;&gt;4366610320 -->
<g id="edge8" class="edge">
<title>4366610320+&#45;&gt;4366610320</title>
<path fill="none" stroke="black" d="M2079.4,-126.5C2140.26,-126.5 2294.12,-126.5 2410.95,-126.5"/>
<polygon fill="black" stroke="black" points="2410.62,-130 2420.62,-126.5 2410.62,-123 2410.62,-130"/>
</g>
<!-- 4369516448 -->
<g id="node23" class="node">
<title>4369516448</title>
<polygon fill="none" stroke="black" points="2730,-57.5 2730,-93.5 3038.25,-93.5 3038.25,-57.5 2730,-57.5"/>
<text text-anchor="middle" x="2799.88" y="-70.7" font-family="Times,serif" font-size="14.00">(exp(logit2) + 1 ** &#45;1)</text>
<polyline fill="none" stroke="black" points="2869.75,-58 2869.75,-93.5"/>
<text text-anchor="middle" x="2911.5" y="-70.7" font-family="Times,serif" font-size="14.00">data: 0.1464</text>
<polyline fill="none" stroke="black" points="2953.25,-58 2953.25,-93.5"/>
<text text-anchor="middle" x="2995.75" y="-70.7" font-family="Times,serif" font-size="14.00">grad: 4.8284</text>
</g>
<!-- 4369516448&#45;&gt;4368656432* -->
<g id="edge15" class="edge">
<title>4369516448&#45;&gt;4368656432*</title>
<path fill="none" stroke="black" d="M3038.6,-91.91C3047.32,-92.84 3055.54,-93.72 3062.97,-94.51"/>
<polygon fill="black" stroke="black" points="3062.48,-97.98 3072.79,-95.56 3063.22,-91.02 3062.48,-97.98"/>
</g>
<!-- 4369516448**&#45;1&#45;&gt;4369516448 -->
<g id="edge9" class="edge">
<title>4369516448**&#45;1&#45;&gt;4369516448</title>
<path fill="none" stroke="black" d="M2586.31,-71.83C2616.26,-72.2 2667.12,-72.83 2718.36,-73.47"/>
<polygon fill="black" stroke="black" points="2718.08,-76.96 2728.12,-73.59 2718.17,-69.96 2718.08,-76.96"/>
</g>
<!-- 4369357232 -->
<g id="node25" class="node">
<title>4369357232</title>
<polygon fill="none" stroke="black" points="1768.88,-26.5 1768.88,-62.5 1964.62,-62.5 1964.62,-26.5 1768.88,-26.5"/>
<text text-anchor="middle" x="1780.25" y="-39.7" font-family="Times,serif" font-size="14.00">1</text>
<polyline fill="none" stroke="black" points="1791.62,-27 1791.62,-62.5"/>
<text text-anchor="middle" x="1833.38" y="-39.7" font-family="Times,serif" font-size="14.00">data: 1.0000</text>
<polyline fill="none" stroke="black" points="1875.12,-27 1875.12,-62.5"/>
<text text-anchor="middle" x="1919.88" y="-39.7" font-family="Times,serif" font-size="14.00">grad: &#45;0.1036</text>
</g>
<!-- 4369357232&#45;&gt;4369357680+ -->
<g id="edge22" class="edge">
<title>4369357232&#45;&gt;4369357680+</title>
<path fill="none" stroke="black" d="M1965.01,-58.83C1982.41,-61.39 1999.54,-63.92 2013.87,-66.03"/>
<polygon fill="black" stroke="black" points="2013.3,-69.48 2023.7,-67.48 2014.32,-62.56 2013.3,-69.48"/>
</g>
<!-- 4369401808 -->
<g id="node26" class="node">
<title>4369401808</title>
<polygon fill="none" stroke="black" points="1402.5,-81.5 1402.5,-117.5 1618.5,-117.5 1618.5,-81.5 1402.5,-81.5"/>
<text text-anchor="middle" x="1426.25" y="-94.7" font-family="Times,serif" font-size="14.00">logit2</text>
<polyline fill="none" stroke="black" points="1450,-82 1450,-117.5"/>
<text text-anchor="middle" x="1491.75" y="-94.7" font-family="Times,serif" font-size="14.00">data: 1.7627</text>
<polyline fill="none" stroke="black" points="1533.5,-82 1533.5,-117.5"/>
<text text-anchor="middle" x="1576" y="-94.7" font-family="Times,serif" font-size="14.00">grad: 0.2500</text>
</g>
<!-- 4369401808&#45;&gt;4369402048e -->
<g id="edge16" class="edge">
<title>4369401808&#45;&gt;4369402048e</title>
<path fill="none" stroke="black" d="M1618.53,-99.5C1627.03,-99.5 1635.19,-99.5 1642.65,-99.5"/>
<polygon fill="black" stroke="black" points="1642.59,-103 1652.59,-99.5 1642.59,-96 1642.59,-103"/>
</g>
<!-- 4369401808*&#45;&gt;4369401808 -->
<g id="edge10" class="edge">
<title>4369401808*&#45;&gt;4369401808</title>
<path fill="none" stroke="black" d="M1366.91,-99.5C1374.02,-99.5 1382.2,-99.5 1390.97,-99.5"/>
<polygon fill="black" stroke="black" points="1390.84,-103 1400.84,-99.5 1390.84,-96 1390.84,-103"/>
</g>
<!-- 4368571360 -->
<g id="node28" class="node">
<title>4368571360</title>
<polygon fill="none" stroke="black" points="1.5,-0.5 1.5,-36.5 204,-36.5 204,-0.5 1.5,-0.5"/>
<text text-anchor="middle" x="16.25" y="-13.7" font-family="Times,serif" font-size="14.00">x1</text>
<polyline fill="none" stroke="black" points="31,-1 31,-36.5"/>
<text text-anchor="middle" x="72.75" y="-13.7" font-family="Times,serif" font-size="14.00">data: 2.0000</text>
<polyline fill="none" stroke="black" points="114.5,-1 114.5,-36.5"/>
<text text-anchor="middle" x="159.25" y="-13.7" font-family="Times,serif" font-size="14.00">grad: &#45;1.5000</text>
</g>
<!-- 4368571360&#45;&gt;4349893744* -->
<g id="edge21" class="edge">
<title>4368571360&#45;&gt;4349893744*</title>
<path fill="none" stroke="black" d="M178.92,-36.94C187.95,-39.6 196.98,-42.47 205.5,-45.5 215.61,-49.1 226.34,-53.66 236,-58.06"/>
<polygon fill="black" stroke="black" points="234.42,-61.19 244.97,-62.25 237.39,-54.85 234.42,-61.19"/>
</g>
</g>
</svg>
