<?xml version="1.0" encoding="UTF-8" standalone="no"?>
<!DOCTYPE svg PUBLIC "-//W3C//DTD SVG 1.1//EN"
 "http://www.w3.org/Graphics/SVG/1.1/DTD/svg11.dtd">
<!-- Generated by graphviz version 12.2.1 (20241206.2353)
 -->
<!-- Pages: 1 -->
<svg width="3365pt" height="236pt"
 viewBox="0.00 0.00 3365.00 236.00" xmlns="http://www.w3.org/2000/svg" xmlns:xlink="http://www.w3.org/1999/xlink">
<g id="graph0" class="graph" transform="scale(1 1) rotate(0) translate(4 232)">
<polygon fill="white" stroke="none" points="-4,4 -4,-232 3361,-232 3361,4 -4,4"/>
<!-- 4424060432 -->
<g id="node1" class="node">
<title>4424060432</title>
<polygon fill="none" stroke="black" points="3164.25,-135.5 3164.25,-171.5 3357,-171.5 3357,-135.5 3164.25,-135.5"/>
<text text-anchor="middle" x="3176.38" y="-148.7" font-family="Times,serif" font-size="14.00">L</text>
<polyline fill="none" stroke="black" points="3188.5,-136 3188.5,-171.5"/>
<text text-anchor="middle" x="3230.25" y="-148.7" font-family="Times,serif" font-size="14.00">data: 0.7071</text>
<polyline fill="none" stroke="black" points="3272,-136 3272,-171.5"/>
<text text-anchor="middle" x="3314.5" y="-148.7" font-family="Times,serif" font-size="14.00">grad: 1.0000</text>
</g>
<!-- 4424060432* -->
<g id="node2" class="node">
<title>4424060432*</title>
<ellipse fill="none" stroke="black" cx="3101.25" cy="-153.5" rx="27" ry="18"/>
<text text-anchor="middle" x="3101.25" y="-148.45" font-family="Times,serif" font-size="14.00">*</text>
</g>
<!-- 4424060432*&#45;&gt;4424060432 -->
<g id="edge1" class="edge">
<title>4424060432*&#45;&gt;4424060432</title>
<path fill="none" stroke="black" d="M3128.59,-153.5C3135.73,-153.5 3143.92,-153.5 3152.64,-153.5"/>
<polygon fill="black" stroke="black" points="3152.42,-157 3162.42,-153.5 3152.42,-150 3152.42,-157"/>
</g>
<!-- 4423071776 -->
<g id="node3" class="node">
<title>4423071776</title>
<polygon fill="none" stroke="black" points="713.25,-137.5 713.25,-173.5 904.5,-173.5 904.5,-137.5 713.25,-137.5"/>
<text text-anchor="middle" x="724.62" y="-150.7" font-family="Times,serif" font-size="14.00">b</text>
<polyline fill="none" stroke="black" points="736,-138 736,-173.5"/>
<text text-anchor="middle" x="777.75" y="-150.7" font-family="Times,serif" font-size="14.00">data: 6.8814</text>
<polyline fill="none" stroke="black" points="819.5,-138 819.5,-173.5"/>
<text text-anchor="middle" x="862" y="-150.7" font-family="Times,serif" font-size="14.00">grad: 0.5000</text>
</g>
<!-- 4413085264+ -->
<g id="node9" class="node">
<title>4413085264+</title>
<ellipse fill="none" stroke="black" cx="1004.25" cy="-127.5" rx="27" ry="18"/>
<text text-anchor="middle" x="1004.25" y="-122.45" font-family="Times,serif" font-size="14.00">+</text>
</g>
<!-- 4423071776&#45;&gt;4413085264+ -->
<g id="edge26" class="edge">
<title>4423071776&#45;&gt;4413085264+</title>
<path fill="none" stroke="black" d="M904.86,-141.75C926.7,-138.58 948.65,-135.41 966.26,-132.86"/>
<polygon fill="black" stroke="black" points="966.53,-136.35 975.93,-131.46 965.53,-129.43 966.53,-136.35"/>
</g>
<!-- 4392079904 -->
<g id="node4" class="node">
<title>4392079904</title>
<polygon fill="none" stroke="black" points="2.25,-165.5 2.25,-201.5 203.25,-201.5 203.25,-165.5 2.25,-165.5"/>
<text text-anchor="middle" x="18.5" y="-178.7" font-family="Times,serif" font-size="14.00">w2</text>
<polyline fill="none" stroke="black" points="34.75,-166 34.75,-201.5"/>
<text text-anchor="middle" x="76.5" y="-178.7" font-family="Times,serif" font-size="14.00">data: 1.0000</text>
<polyline fill="none" stroke="black" points="118.25,-166 118.25,-201.5"/>
<text text-anchor="middle" x="160.75" y="-178.7" font-family="Times,serif" font-size="14.00">grad: 0.0000</text>
</g>
<!-- 4417516912* -->
<g id="node20" class="node">
<title>4417516912*</title>
<ellipse fill="none" stroke="black" cx="268.5" cy="-128.5" rx="27" ry="18"/>
<text text-anchor="middle" x="268.5" y="-123.45" font-family="Times,serif" font-size="14.00">*</text>
</g>
<!-- 4392079904&#45;&gt;4417516912* -->
<g id="edge22" class="edge">
<title>4392079904&#45;&gt;4417516912*</title>
<path fill="none" stroke="black" d="M178.92,-165.06C187.95,-162.4 196.98,-159.53 205.5,-156.5 215.61,-152.9 226.34,-148.34 236,-143.94"/>
<polygon fill="black" stroke="black" points="237.39,-147.15 244.97,-139.75 234.42,-140.81 237.39,-147.15"/>
</g>
<!-- 4423443536 -->
<g id="node5" class="node">
<title>4423443536</title>
<polygon fill="none" stroke="black" points="1076.25,-164.5 1076.25,-200.5 1267.5,-200.5 1267.5,-164.5 1076.25,-164.5"/>
<text text-anchor="middle" x="1087.62" y="-177.7" font-family="Times,serif" font-size="14.00">2</text>
<polyline fill="none" stroke="black" points="1099,-165 1099,-200.5"/>
<text text-anchor="middle" x="1140.75" y="-177.7" font-family="Times,serif" font-size="14.00">data: 2.0000</text>
<polyline fill="none" stroke="black" points="1182.5,-165 1182.5,-200.5"/>
<text text-anchor="middle" x="1225" y="-177.7" font-family="Times,serif" font-size="14.00">grad: 0.2203</text>
</g>
<!-- 4424109424* -->
<g id="node26" class="node">
<title>4424109424*</title>
<ellipse fill="none" stroke="black" cx="1339.5" cy="-154.5" rx="27" ry="18"/>
<text text-anchor="middle" x="1339.5" y="-149.45" font-family="Times,serif" font-size="14.00">*</text>
</g>
<!-- 4423443536&#45;&gt;4424109424* -->
<g id="edge27" class="edge">
<title>4423443536&#45;&gt;4424109424*</title>
<path fill="none" stroke="black" d="M1267.78,-166.46C1279.73,-164.44 1291.33,-162.47 1301.57,-160.74"/>
<polygon fill="black" stroke="black" points="1302.13,-164.2 1311.41,-159.08 1300.96,-157.3 1302.13,-164.2"/>
</g>
<!-- 4424109664 -->
<g id="node6" class="node">
<title>4424109664</title>
<polygon fill="none" stroke="black" points="1744.5,-136.5 1744.5,-172.5 1989,-172.5 1989,-136.5 1744.5,-136.5"/>
<text text-anchor="middle" x="1782.5" y="-149.7" font-family="Times,serif" font-size="14.00">exp(logit2)</text>
<polyline fill="none" stroke="black" points="1820.5,-137 1820.5,-172.5"/>
<text text-anchor="middle" x="1862.25" y="-149.7" font-family="Times,serif" font-size="14.00">data: 5.8284</text>
<polyline fill="none" stroke="black" points="1904,-137 1904,-172.5"/>
<text text-anchor="middle" x="1946.5" y="-149.7" font-family="Times,serif" font-size="14.00">grad: 0.0429</text>
</g>
<!-- 4422773904+ -->
<g id="node13" class="node">
<title>4422773904+</title>
<ellipse fill="none" stroke="black" cx="2052" cy="-181.5" rx="27" ry="18"/>
<text text-anchor="middle" x="2052" y="-176.45" font-family="Times,serif" font-size="14.00">+</text>
</g>
<!-- 4424109664&#45;&gt;4422773904+ -->
<g id="edge20" class="edge">
<title>4424109664&#45;&gt;4422773904+</title>
<path fill="none" stroke="black" d="M1989.47,-172.43C1998.23,-173.73 2006.58,-174.96 2014.15,-176.07"/>
<polygon fill="black" stroke="black" points="2013.43,-179.5 2023.83,-177.5 2014.45,-172.58 2013.43,-179.5"/>
</g>
<!-- 4424147120+ -->
<g id="node16" class="node">
<title>4424147120+</title>
<ellipse fill="none" stroke="black" cx="2052" cy="-126.5" rx="27" ry="18"/>
<text text-anchor="middle" x="2052" y="-121.45" font-family="Times,serif" font-size="14.00">+</text>
</g>
<!-- 4424109664&#45;&gt;4424147120+ -->
<g id="edge18" class="edge">
<title>4424109664&#45;&gt;4424147120+</title>
<path fill="none" stroke="black" d="M1988.7,-136.02C1997.75,-134.64 2006.37,-133.32 2014.16,-132.13"/>
<polygon fill="black" stroke="black" points="2014.43,-135.63 2023.79,-130.66 2013.37,-128.71 2014.43,-135.63"/>
</g>
<!-- 4424109664e -->
<g id="node7" class="node">
<title>4424109664e</title>
<ellipse fill="none" stroke="black" cx="1681.5" cy="-154.5" rx="27" ry="18"/>
<text text-anchor="middle" x="1681.5" y="-149.45" font-family="Times,serif" font-size="14.00">e</text>
</g>
<!-- 4424109664e&#45;&gt;4424109664 -->
<g id="edge2" class="edge">
<title>4424109664e&#45;&gt;4424109664</title>
<path fill="none" stroke="black" d="M1708.76,-154.5C1715.85,-154.5 1724.04,-154.5 1732.88,-154.5"/>
<polygon fill="black" stroke="black" points="1732.87,-158 1742.87,-154.5 1732.87,-151 1732.87,-158"/>
</g>
<!-- 4413085264 -->
<g id="node8" class="node">
<title>4413085264</title>
<polygon fill="none" stroke="black" points="1067.25,-109.5 1067.25,-145.5 1276.5,-145.5 1276.5,-109.5 1067.25,-109.5"/>
<text text-anchor="middle" x="1087.62" y="-122.7" font-family="Times,serif" font-size="14.00">logit</text>
<polyline fill="none" stroke="black" points="1108,-110 1108,-145.5"/>
<text text-anchor="middle" x="1149.75" y="-122.7" font-family="Times,serif" font-size="14.00">data: 0.8814</text>
<polyline fill="none" stroke="black" points="1191.5,-110 1191.5,-145.5"/>
<text text-anchor="middle" x="1234" y="-122.7" font-family="Times,serif" font-size="14.00">grad: 0.5000</text>
</g>
<!-- 4413085264&#45;&gt;4424109424* -->
<g id="edge19" class="edge">
<title>4413085264&#45;&gt;4424109424*</title>
<path fill="none" stroke="black" d="M1276.83,-144.45C1285.53,-145.86 1293.9,-147.23 1301.51,-148.47"/>
<polygon fill="black" stroke="black" points="1300.86,-151.91 1311.3,-150.07 1301.99,-145 1300.86,-151.91"/>
</g>
<!-- 4413085264+&#45;&gt;4413085264 -->
<g id="edge3" class="edge">
<title>4413085264+&#45;&gt;4413085264</title>
<path fill="none" stroke="black" d="M1031.49,-127.5C1038.61,-127.5 1046.8,-127.5 1055.56,-127.5"/>
<polygon fill="black" stroke="black" points="1055.42,-131 1065.42,-127.5 1055.42,-124 1055.42,-131"/>
</g>
<!-- 4423924848 -->
<g id="node10" class="node">
<title>4423924848</title>
<polygon fill="none" stroke="black" points="2730,-112.5 2730,-148.5 3038.25,-148.5 3038.25,-112.5 2730,-112.5"/>
<text text-anchor="middle" x="2799.88" y="-125.7" font-family="Times,serif" font-size="14.00">(exp(logit2) + 1 ** &#45;1)</text>
<polyline fill="none" stroke="black" points="2869.75,-113 2869.75,-148.5"/>
<text text-anchor="middle" x="2911.5" y="-125.7" font-family="Times,serif" font-size="14.00">data: 0.1464</text>
<polyline fill="none" stroke="black" points="2953.25,-113 2953.25,-148.5"/>
<text text-anchor="middle" x="2995.75" y="-125.7" font-family="Times,serif" font-size="14.00">grad: 4.8284</text>
</g>
<!-- 4423924848&#45;&gt;4424060432* -->
<g id="edge23" class="edge">
<title>4423924848&#45;&gt;4424060432*</title>
<path fill="none" stroke="black" d="M3038.6,-146.91C3047.32,-147.84 3055.54,-148.72 3062.97,-149.51"/>
<polygon fill="black" stroke="black" points="3062.48,-152.98 3072.79,-150.56 3063.22,-146.02 3062.48,-152.98"/>
</g>
<!-- 4423924848**&#45;1 -->
<g id="node11" class="node">
<title>4423924848**&#45;1</title>
<ellipse fill="none" stroke="black" cx="2558.25" cy="-126.5" rx="27.81" ry="18"/>
<text text-anchor="middle" x="2558.25" y="-121.45" font-family="Times,serif" font-size="14.00">**&#45;1</text>
</g>
<!-- 4423924848**&#45;1&#45;&gt;4423924848 -->
<g id="edge4" class="edge">
<title>4423924848**&#45;1&#45;&gt;4423924848</title>
<path fill="none" stroke="black" d="M2586.31,-126.83C2616.26,-127.2 2667.12,-127.83 2718.36,-128.47"/>
<polygon fill="black" stroke="black" points="2718.08,-131.96 2728.12,-128.59 2718.17,-124.96 2718.08,-131.96"/>
</g>
<!-- 4422773904 -->
<g id="node12" class="node">
<title>4422773904</title>
<polygon fill="none" stroke="black" points="2422.5,-163.5 2422.5,-199.5 2694,-199.5 2694,-163.5 2422.5,-163.5"/>
<text text-anchor="middle" x="2474" y="-176.7" font-family="Times,serif" font-size="14.00">exp(logit2) + &#45;1</text>
<polyline fill="none" stroke="black" points="2525.5,-164 2525.5,-199.5"/>
<text text-anchor="middle" x="2567.25" y="-176.7" font-family="Times,serif" font-size="14.00">data: 4.8284</text>
<polyline fill="none" stroke="black" points="2609,-164 2609,-199.5"/>
<text text-anchor="middle" x="2651.5" y="-176.7" font-family="Times,serif" font-size="14.00">grad: 0.1464</text>
</g>
<!-- 4422773904&#45;&gt;4424060432* -->
<g id="edge15" class="edge">
<title>4422773904&#45;&gt;4424060432*</title>
<path fill="none" stroke="black" d="M2694.29,-176.19C2790.29,-172.13 2922.24,-165.96 3038.25,-158.5 3046.14,-157.99 3054.59,-157.37 3062.64,-156.73"/>
<polygon fill="black" stroke="black" points="3062.83,-160.23 3072.51,-155.93 3062.26,-153.25 3062.83,-160.23"/>
</g>
<!-- 4422773904+&#45;&gt;4422773904 -->
<g id="edge5" class="edge">
<title>4422773904+&#45;&gt;4422773904</title>
<path fill="none" stroke="black" d="M2079.4,-181.5C2140.26,-181.5 2294.12,-181.5 2410.95,-181.5"/>
<polygon fill="black" stroke="black" points="2410.62,-185 2420.62,-181.5 2410.62,-178 2410.62,-185"/>
</g>
<!-- 4423342736 -->
<g id="node14" class="node">
<title>4423342736</title>
<polygon fill="none" stroke="black" points="0,-55.5 0,-91.5 205.5,-91.5 205.5,-55.5 0,-55.5"/>
<text text-anchor="middle" x="16.25" y="-68.7" font-family="Times,serif" font-size="14.00">w1</text>
<polyline fill="none" stroke="black" points="32.5,-56 32.5,-91.5"/>
<text text-anchor="middle" x="76.5" y="-68.7" font-family="Times,serif" font-size="14.00">data: &#45;3.0000</text>
<polyline fill="none" stroke="black" points="120.5,-56 120.5,-91.5"/>
<text text-anchor="middle" x="163" y="-68.7" font-family="Times,serif" font-size="14.00">grad: 1.0000</text>
</g>
<!-- 4413151216* -->
<g id="node28" class="node">
<title>4413151216*</title>
<ellipse fill="none" stroke="black" cx="268.5" cy="-73.5" rx="27" ry="18"/>
<text text-anchor="middle" x="268.5" y="-68.45" font-family="Times,serif" font-size="14.00">*</text>
</g>
<!-- 4423342736&#45;&gt;4413151216* -->
<g id="edge17" class="edge">
<title>4423342736&#45;&gt;4413151216*</title>
<path fill="none" stroke="black" d="M205.59,-73.5C214.03,-73.5 222.16,-73.5 229.61,-73.5"/>
<polygon fill="black" stroke="black" points="229.53,-77 239.53,-73.5 229.53,-70 229.53,-77"/>
</g>
<!-- 4424147120 -->
<g id="node15" class="node">
<title>4424147120</title>
<polygon fill="none" stroke="black" points="2115,-108.5 2115,-144.5 2386.5,-144.5 2386.5,-108.5 2115,-108.5"/>
<text text-anchor="middle" x="2164.25" y="-121.7" font-family="Times,serif" font-size="14.00">exp(logit2) + 1</text>
<polyline fill="none" stroke="black" points="2213.5,-109 2213.5,-144.5"/>
<text text-anchor="middle" x="2255.25" y="-121.7" font-family="Times,serif" font-size="14.00">data: 6.8284</text>
<polyline fill="none" stroke="black" points="2297,-109 2297,-144.5"/>
<text text-anchor="middle" x="2341.75" y="-121.7" font-family="Times,serif" font-size="14.00">grad: &#45;0.1036</text>
</g>
<!-- 4424147120&#45;&gt;4423924848**&#45;1 -->
<g id="edge13" class="edge">
<title>4424147120&#45;&gt;4423924848**&#45;1</title>
<path fill="none" stroke="black" d="M2386.64,-126.5C2434.82,-126.5 2485.41,-126.5 2518.87,-126.5"/>
<polygon fill="black" stroke="black" points="2518.44,-130 2528.44,-126.5 2518.44,-123 2518.44,-130"/>
</g>
<!-- 4424147120+&#45;&gt;4424147120 -->
<g id="edge6" class="edge">
<title>4424147120+&#45;&gt;4424147120</title>
<path fill="none" stroke="black" d="M2079.13,-126.5C2086.26,-126.5 2094.53,-126.5 2103.49,-126.5"/>
<polygon fill="black" stroke="black" points="2103.23,-130 2113.23,-126.5 2103.23,-123 2103.23,-130"/>
</g>
<!-- 4391786688 -->
<g id="node17" class="node">
<title>4391786688</title>
<polygon fill="none" stroke="black" points="676.5,-82.5 676.5,-118.5 941.25,-118.5 941.25,-82.5 676.5,-82.5"/>
<text text-anchor="middle" x="722.38" y="-95.7" font-family="Times,serif" font-size="14.00">x1w1 + x2w2</text>
<polyline fill="none" stroke="black" points="768.25,-83 768.25,-118.5"/>
<text text-anchor="middle" x="812.25" y="-95.7" font-family="Times,serif" font-size="14.00">data: &#45;6.0000</text>
<polyline fill="none" stroke="black" points="856.25,-83 856.25,-118.5"/>
<text text-anchor="middle" x="898.75" y="-95.7" font-family="Times,serif" font-size="14.00">grad: 0.5000</text>
</g>
<!-- 4391786688&#45;&gt;4413085264+ -->
<g id="edge12" class="edge">
<title>4391786688&#45;&gt;4413085264+</title>
<path fill="none" stroke="black" d="M941.53,-118.88C950.31,-120.11 958.64,-121.27 966.18,-122.32"/>
<polygon fill="black" stroke="black" points="965.44,-125.75 975.83,-123.67 966.41,-118.82 965.44,-125.75"/>
</g>
<!-- 4391786688+ -->
<g id="node18" class="node">
<title>4391786688+</title>
<ellipse fill="none" stroke="black" cx="613.5" cy="-100.5" rx="27" ry="18"/>
<text text-anchor="middle" x="613.5" y="-95.45" font-family="Times,serif" font-size="14.00">+</text>
</g>
<!-- 4391786688+&#45;&gt;4391786688 -->
<g id="edge7" class="edge">
<title>4391786688+&#45;&gt;4391786688</title>
<path fill="none" stroke="black" d="M640.98,-100.5C647.96,-100.5 656.01,-100.5 664.71,-100.5"/>
<polygon fill="black" stroke="black" points="664.54,-104 674.54,-100.5 664.54,-97 664.54,-104"/>
</g>
<!-- 4417516912 -->
<g id="node19" class="node">
<title>4417516912</title>
<polygon fill="none" stroke="black" points="333.75,-110.5 333.75,-146.5 548.25,-146.5 548.25,-110.5 333.75,-110.5"/>
<text text-anchor="middle" x="356.75" y="-123.7" font-family="Times,serif" font-size="14.00">x2w2</text>
<polyline fill="none" stroke="black" points="379.75,-111 379.75,-146.5"/>
<text text-anchor="middle" x="421.5" y="-123.7" font-family="Times,serif" font-size="14.00">data: 0.0000</text>
<polyline fill="none" stroke="black" points="463.25,-111 463.25,-146.5"/>
<text text-anchor="middle" x="505.75" y="-123.7" font-family="Times,serif" font-size="14.00">grad: 0.5000</text>
</g>
<!-- 4417516912&#45;&gt;4391786688+ -->
<g id="edge28" class="edge">
<title>4417516912&#45;&gt;4391786688+</title>
<path fill="none" stroke="black" d="M548.53,-111.01C558.14,-109.43 567.36,-107.91 575.66,-106.55"/>
<polygon fill="black" stroke="black" points="575.95,-110.05 585.25,-104.98 574.81,-103.14 575.95,-110.05"/>
</g>
<!-- 4417516912*&#45;&gt;4417516912 -->
<g id="edge8" class="edge">
<title>4417516912*&#45;&gt;4417516912</title>
<path fill="none" stroke="black" d="M295.77,-128.5C303.42,-128.5 312.32,-128.5 321.87,-128.5"/>
<polygon fill="black" stroke="black" points="321.82,-132 331.82,-128.5 321.82,-125 321.82,-132"/>
</g>
<!-- 4422773520 -->
<g id="node21" class="node">
<title>4422773520</title>
<polygon fill="none" stroke="black" points="1766.62,-191.5 1766.62,-227.5 1966.88,-227.5 1966.88,-191.5 1766.62,-191.5"/>
<text text-anchor="middle" x="1780.25" y="-204.7" font-family="Times,serif" font-size="14.00">&#45;1</text>
<polyline fill="none" stroke="black" points="1793.88,-192 1793.88,-227.5"/>
<text text-anchor="middle" x="1837.88" y="-204.7" font-family="Times,serif" font-size="14.00">data: &#45;1.0000</text>
<polyline fill="none" stroke="black" points="1881.88,-192 1881.88,-227.5"/>
<text text-anchor="middle" x="1924.38" y="-204.7" font-family="Times,serif" font-size="14.00">grad: 0.1464</text>
</g>
<!-- 4422773520&#45;&gt;4422773904+ -->
<g id="edge25" class="edge">
<title>4422773520&#45;&gt;4422773904+</title>
<path fill="none" stroke="black" d="M1967.15,-194.31C1983.81,-191.77 2000.12,-189.27 2013.87,-187.17"/>
<polygon fill="black" stroke="black" points="2014.38,-190.64 2023.73,-185.67 2013.32,-183.72 2014.38,-190.64"/>
</g>
<!-- 4423343376 -->
<g id="node22" class="node">
<title>4423343376</title>
<polygon fill="none" stroke="black" points="3.75,-110.5 3.75,-146.5 201.75,-146.5 201.75,-110.5 3.75,-110.5"/>
<text text-anchor="middle" x="18.5" y="-123.7" font-family="Times,serif" font-size="14.00">x2</text>
<polyline fill="none" stroke="black" points="33.25,-111 33.25,-146.5"/>
<text text-anchor="middle" x="75" y="-123.7" font-family="Times,serif" font-size="14.00">data: 0.0000</text>
<polyline fill="none" stroke="black" points="116.75,-111 116.75,-146.5"/>
<text text-anchor="middle" x="159.25" y="-123.7" font-family="Times,serif" font-size="14.00">grad: 0.5000</text>
</g>
<!-- 4423343376&#45;&gt;4417516912* -->
<g id="edge24" class="edge">
<title>4423343376&#45;&gt;4417516912*</title>
<path fill="none" stroke="black" d="M201.84,-128.5C211.65,-128.5 221.15,-128.5 229.72,-128.5"/>
<polygon fill="black" stroke="black" points="229.65,-132 239.65,-128.5 229.65,-125 229.65,-132"/>
</g>
<!-- 4424146224 -->
<g id="node23" class="node">
<title>4424146224</title>
<polygon fill="none" stroke="black" points="1768.88,-81.5 1768.88,-117.5 1964.62,-117.5 1964.62,-81.5 1768.88,-81.5"/>
<text text-anchor="middle" x="1780.25" y="-94.7" font-family="Times,serif" font-size="14.00">1</text>
<polyline fill="none" stroke="black" points="1791.62,-82 1791.62,-117.5"/>
<text text-anchor="middle" x="1833.38" y="-94.7" font-family="Times,serif" font-size="14.00">data: 1.0000</text>
<polyline fill="none" stroke="black" points="1875.12,-82 1875.12,-117.5"/>
<text text-anchor="middle" x="1919.88" y="-94.7" font-family="Times,serif" font-size="14.00">grad: &#45;0.1036</text>
</g>
<!-- 4424146224&#45;&gt;4424147120+ -->
<g id="edge14" class="edge">
<title>4424146224&#45;&gt;4424147120+</title>
<path fill="none" stroke="black" d="M1965.01,-113.83C1982.41,-116.39 1999.54,-118.92 2013.87,-121.03"/>
<polygon fill="black" stroke="black" points="2013.3,-124.48 2023.7,-122.48 2014.32,-117.56 2013.3,-124.48"/>
</g>
<!-- 4423293248 -->
<g id="node24" class="node">
<title>4423293248</title>
<polygon fill="none" stroke="black" points="1.5,-0.5 1.5,-36.5 204,-36.5 204,-0.5 1.5,-0.5"/>
<text text-anchor="middle" x="16.25" y="-13.7" font-family="Times,serif" font-size="14.00">x1</text>
<polyline fill="none" stroke="black" points="31,-1 31,-36.5"/>
<text text-anchor="middle" x="72.75" y="-13.7" font-family="Times,serif" font-size="14.00">data: 2.0000</text>
<polyline fill="none" stroke="black" points="114.5,-1 114.5,-36.5"/>
<text text-anchor="middle" x="159.25" y="-13.7" font-family="Times,serif" font-size="14.00">grad: &#45;1.5000</text>
</g>
<!-- 4423293248&#45;&gt;4413151216* -->
<g id="edge11" class="edge">
<title>4423293248&#45;&gt;4413151216*</title>
<path fill="none" stroke="black" d="M178.92,-36.94C187.95,-39.6 196.98,-42.47 205.5,-45.5 215.61,-49.1 226.34,-53.66 236,-58.06"/>
<polygon fill="black" stroke="black" points="234.42,-61.19 244.97,-62.25 237.39,-54.85 234.42,-61.19"/>
</g>
<!-- 4424109424 -->
<g id="node25" class="node">
<title>4424109424</title>
<polygon fill="none" stroke="black" points="1402.5,-136.5 1402.5,-172.5 1618.5,-172.5 1618.5,-136.5 1402.5,-136.5"/>
<text text-anchor="middle" x="1426.25" y="-149.7" font-family="Times,serif" font-size="14.00">logit2</text>
<polyline fill="none" stroke="black" points="1450,-137 1450,-172.5"/>
<text text-anchor="middle" x="1491.75" y="-149.7" font-family="Times,serif" font-size="14.00">data: 1.7627</text>
<polyline fill="none" stroke="black" points="1533.5,-137 1533.5,-172.5"/>
<text text-anchor="middle" x="1576" y="-149.7" font-family="Times,serif" font-size="14.00">grad: 0.2500</text>
</g>
<!-- 4424109424&#45;&gt;4424109664e -->
<g id="edge21" class="edge">
<title>4424109424&#45;&gt;4424109664e</title>
<path fill="none" stroke="black" d="M1618.53,-154.5C1627.03,-154.5 1635.19,-154.5 1642.65,-154.5"/>
<polygon fill="black" stroke="black" points="1642.59,-158 1652.59,-154.5 1642.59,-151 1642.59,-158"/>
</g>
<!-- 4424109424*&#45;&gt;4424109424 -->
<g id="edge9" class="edge">
<title>4424109424*&#45;&gt;4424109424</title>
<path fill="none" stroke="black" d="M1366.91,-154.5C1374.02,-154.5 1382.2,-154.5 1390.97,-154.5"/>
<polygon fill="black" stroke="black" points="1390.84,-158 1400.84,-154.5 1390.84,-151 1390.84,-158"/>
</g>
<!-- 4413151216 -->
<g id="node27" class="node">
<title>4413151216</title>
<polygon fill="none" stroke="black" points="331.5,-55.5 331.5,-91.5 550.5,-91.5 550.5,-55.5 331.5,-55.5"/>
<text text-anchor="middle" x="354.5" y="-68.7" font-family="Times,serif" font-size="14.00">x1w1</text>
<polyline fill="none" stroke="black" points="377.5,-56 377.5,-91.5"/>
<text text-anchor="middle" x="421.5" y="-68.7" font-family="Times,serif" font-size="14.00">data: &#45;6.0000</text>
<polyline fill="none" stroke="black" points="465.5,-56 465.5,-91.5"/>
<text text-anchor="middle" x="508" y="-68.7" font-family="Times,serif" font-size="14.00">grad: 0.5000</text>
</g>
<!-- 4413151216&#45;&gt;4391786688+ -->
<g id="edge16" class="edge">
<title>4413151216&#45;&gt;4391786688+</title>
<path fill="none" stroke="black" d="M550.95,-90.75C559.68,-92.14 568.06,-93.46 575.67,-94.67"/>
<polygon fill="black" stroke="black" points="575.01,-98.11 585.43,-96.21 576.1,-91.19 575.01,-98.11"/>
</g>
<!-- 4413151216*&#45;&gt;4413151216 -->
<g id="edge10" class="edge">
<title>4413151216*&#45;&gt;4413151216</title>
<path fill="none" stroke="black" d="M295.77,-73.5C302.86,-73.5 311.02,-73.5 319.78,-73.5"/>
<polygon fill="black" stroke="black" points="319.64,-77 329.64,-73.5 319.64,-70 319.64,-77"/>
</g>
</g>
</svg>
